<svg width="354px" height="201px" viewBox="0 0 354 201" version="1.1" xmlns="http://www.w3.org/2000/svg" xmlns:xlink="http://www.w3.org/1999/xlink">
    <g id="logo" fill="#000000">
        <path d="M99.5420354,155.784292 L254.80531,155.784292 L204.787611,89.0940265 L166.232301,139.111726 L138.097345,105.766593 L99.5420354,155.784292 Z M277.209071,0 C288.150442,0 299.612832,11.4623894 299.612832,22.4037611 L299.612832,177.667035 C299.612832,188.608407 288.150442,200.070796 277.209071,200.070796 L77.1382743,200.070796 C65.1548673,200.070796 54.7345133,189.650442 54.7345133,177.667035 L54.7345133,22.4037611 C54.7345133,11.4623894 66.1969027,0 77.1382743,0 L277.209071,0 Z" />
        <path d="M34.314012,27.0929204 L34.3141593,172.977876 L14.1441906,172.977876 C6.57869332,172.977876 0,165.379728 0,156.641857 L0,43.4294464 C0,35.4513906 7.23656265,27.0934274 14.1441906,27.0934274 L34.314012,27.0929204 Z" />
        <path d="M319.685988,27.0929204 L319.685841,172.977876 L339.855809,172.977876 C347.421307,172.977876 354,165.379728 354,156.641857 L354,43.4294464 C354,35.4513906 346.763437,27.0934274 339.855809,27.0934274 L319.685988,27.0929204 Z" />
    </g>
</svg>
